<svg width="1000" height="1000" viewBox="0 0 1000 1000" fill="none" xmlns="http://www.w3.org/2000/svg">
<rect width="1000" height="1000" rx="200" fill="#25ADDE"/>
<path d="M138.653 430.432C127.815 441.27 134.589 460.238 149.491 460.238H214.519L499.019 207.777L783.519 460.238H848.547C863.449 460.238 870.223 441.27 859.385 431.788L547.789 155.416C520.694 129.676 477.342 129.676 450.246 155.416L138.653 430.432Z" fill="white"/>
<path fill-rule="evenodd" clip-rule="evenodd" d="M500 858.398C590.332 818.359 704.102 687.378 704.102 575.195C704.102 463.012 612.722 372.07 500 372.07C387.278 372.07 295.898 463.012 295.898 575.195C295.898 687.378 409.668 818.359 500 858.398ZM501.389 638.889C542.043 638.889 575 605.932 575 565.278C575 524.624 542.043 491.667 501.389 491.667C460.735 491.667 427.778 524.624 427.778 565.278C427.778 605.932 460.735 638.889 501.389 638.889Z" fill="white"/>
<path d="M675.781 0L903.32 0V348.633L789.551 224.121L675.781 348.633V0Z" fill="#B50505"/>
</svg>
